<svg xmlns="http://www.w3.org/2000/svg" version="1.1" xmlns:xlink="http://www.w3.org/1999/xlink" viewBox="0 0 6.72907234487082 6.231131293579027"><g transform="matrix(0.8522780648191639,0,0,0.8522780648191639,1.8947590522058422,2.4233794936659816)"><g transform="matrix(1,0,0,1,0,0)"><g clip-path="url(#SvgjsClipPath18579)"><path d=" M -0.957134015935764 1.3272714323708206 C -1.141165473525536 1.008520478019757 -1.141165473525536 0.615799521980243 -0.9571338442319532 0.2970485676291794 L -0.06493508779407331 -1.2482857294832828 C 0.11909705661094194 -1.5670384008724545 0.45920109687188404 -1.7633971618541033 0.8272722538343462 -1.7633971618541033 L 2.6117041074722644 -1.7633971618541033 C 2.9797855666633737 -1.7633971618541033 3.319896475076747 -1.567026381605699 3.5039114491006833 -1.2482599739116642 L 4.396067279585865 0.2970657380102586 C 4.580065083228723 0.6158166923613222 4.580065083228723 1.0085033076386778 4.396067279585865 1.3272542619897418 L 3.5039114491006833 2.8725885591022045 C 3.319896475076747 3.191339513453267 2.9797855666633737 3.3877171618541033 2.6117041074722644 3.3877171618541033 L 0.8272722538343462 3.3877171618541033 C 0.45920109687188404 3.3877171618541033 0.11909705661094194 3.191356683834347 -0.06493508779407331 2.872605729483283 L -0.957134015935764 1.3272714323708206 Z" fill="#51a8db" transform="matrix(1,0,0,1,0,0)" fill-rule="nonzero"></path></g></g><g transform="matrix(1,0,0,1,0,0)"><path d=" M 1.156608 1.3593599999999997 L 0.580608 1.3593599999999997 L 0.493056 1.6243199999999998 L 0.018432 1.6243199999999998 L 0.61056 -2.220446049250313e-16 L 1.131264 -2.220446049250313e-16 L 1.721088 1.6243199999999998 L 1.24416 1.6243199999999998 L 1.156608 1.3593599999999997 M 1.043712 1.0137599999999998 L 0.868608 0.48844799999999977 L 0.695808 1.0137599999999998 L 1.043712 1.0137599999999998 M 3.32007525 -2.220446049250313e-16 L 3.32007525 1.6243199999999998 L 2.86849125 1.6243199999999998 L 2.86849125 0.9722879999999997 L 2.31783525 0.9722879999999997 L 2.31783525 1.6243199999999998 L 1.86625125 1.6243199999999998 L 1.86625125 -2.220446049250313e-16 L 2.31783525 -2.220446049250313e-16 L 2.31783525 0.6105599999999998 L 2.86849125 0.6105599999999998 L 2.86849125 -2.220446049250313e-16 L 3.32007525 -2.220446049250313e-16" fill="#000000" fill-rule="nonzero"></path></g><g transform="matrix(1,0,0,1,0,0)"></g></g><defs><clipPath id="SvgjsClipPath18579"><path d=" M -1.1000000000000003 -1.7633971618541033 h 5.6490553750000005 v 5.151114323708207 h -5.6490553750000005 Z"></path></clipPath></defs></svg>