<?xml version="1.0" encoding="UTF-8"?>
<svg version="1.1" xmlns="http://www.w3.org/2000/svg" width="166" height="137">
<path d="M0 0 C7.26 0 14.52 0 22 0 C22.474375 2.248125 22.94875 4.49625 23.4375 6.8125 C24.34739387 10.31661037 25.21333073 13.25819171 27.91796875 15.80859375 C30.53379121 16.92436935 32.15809066 17.25634641 35 17 C37.84812321 15.69061392 40.22444259 14.19051131 42.73828125 12.3203125 C45 11 45 11 46.93920898 11.23364258 C49.31330476 12.11651032 50.47619124 13.13047697 52.234375 14.94140625 C52.80800781 15.52470703 53.38164063 16.10800781 53.97265625 16.70898438 C54.55917969 17.32064453 55.14570313 17.93230469 55.75 18.5625 C56.35199219 19.17802734 56.95398438 19.79355469 57.57421875 20.42773438 C59.05634381 21.94514813 60.5290967 23.47170596 62 25 C61.55527344 25.80824219 61.11054688 26.61648437 60.65234375 27.44921875 C60.08644531 28.51785156 59.52054687 29.58648437 58.9375 30.6875 C58.36902344 31.74324219 57.80054688 32.79898438 57.21484375 33.88671875 C55.8703862 37.33216141 55.93345895 38.54351355 57 42 C57.33333333 43.66666667 57.66666667 45.33333333 58 47 C58.84304687 47.20496094 59.68609375 47.40992188 60.5546875 47.62109375 C61.65039062 47.89050781 62.74609375 48.15992188 63.875 48.4375 C64.96554688 48.70433594 66.05609375 48.97117188 67.1796875 49.24609375 C70 50 70 50 72 51 C72 57.93 72 64.86 72 72 C68.32677966 73.57423729 64.89050372 75.03949046 61.1875 76.375 C57.90132525 77.7084698 57.90132525 77.7084698 56.5 80.375 C55.56376649 85.29022594 57.31278172 88.98611868 59.5625 93.3125 C60.366875 94.859375 61.17125 96.40625 62 98 C57.05 102.95 52.1 107.9 47 113 C45.205625 111.948125 43.41125 110.89625 41.5625 109.8125 C36.0148496 107.09082571 36.0148496 107.09082571 30 107.1875 C26.52453048 108.70131612 26.00444006 109.9890262 24.55859375 113.5625 C23.39811593 117.34554656 22.77208985 121.07241249 22 125 C14.74 125 7.48 125 0 125 C-1.32 119.72 -2.64 114.44 -4 109 C-5.65 108.67 -7.3 108.34 -9 108 C-9.79792969 107.75378906 -10.59585938 107.50757812 -11.41796875 107.25390625 C-15.07302646 106.89448303 -17.1126348 108.21449566 -20.3125 109.9375 C-21.38113281 110.50339844 -22.44976562 111.06929688 -23.55078125 111.65234375 C-24.35902344 112.09707031 -25.16726562 112.54179688 -26 113 C-28.3784607 110.79560567 -30.72282389 108.55796096 -33.0625 106.3125 C-33.73861328 105.68666016 -34.41472656 105.06082031 -35.11132812 104.41601562 C-39.98323014 99.69249641 -39.98323014 99.69249641 -40.06640625 96.2578125 C-39.10973425 94.23233113 -38.1404968 92.40764743 -36.875 90.5625 C-35.24943965 87.85323276 -34.9949086 87.12983061 -35.125 83.8125 C-35.41375 82.884375 -35.7025 81.95625 -36 81 C-36.20109375 80.32839844 -36.4021875 79.65679687 -36.609375 78.96484375 C-38.7948079 75.87699895 -41.54073582 75.66235816 -45.125 74.75 C-48.528125 73.88375 -48.528125 73.88375 -52 73 C-52 65.74 -52 58.48 -52 51 C-39.25 47 -39.25 47 -37 47 C-36.690625 46.071875 -36.38125 45.14375 -36.0625 44.1875 C-35.375 42.125 -34.6875 40.0625 -34 38 C-35.45003789 35.11314646 -37.14232904 32.43410975 -38.84765625 29.69140625 C-40 27 -40 27 -39.56640625 25.04296875 C-37.24826405 22.01955636 -34.6065898 19.39919846 -31.875 16.75 C-31.31167969 16.19570313 -30.74835937 15.64140625 -30.16796875 15.0703125 C-28.78313972 13.70895515 -27.39216796 12.35385141 -26 11 C-22.51862648 12.07119185 -19.62327077 13.09558424 -16.6875 15.25 C-13.52986454 17.17573284 -11.64264301 17.05805736 -8.0625 16.25 C-6.70070972 15.8589684 -5.34319679 15.45077806 -4 15 C-3.52029877 13.25014646 -3.04126076 11.50011109 -2.5625 9.75 C-2.29566406 8.77546875 -2.02882812 7.8009375 -1.75390625 6.796875 C-1.14493079 4.53767069 -0.56749476 2.26997905 0 0 Z M-19.5 38.93359375 C-25.20363918 46.79095085 -28.09656697 56.25470321 -27 66 C-25.35905946 75.77105502 -21.12373787 85.01209582 -13.3125 91.375 C-3.03621481 98.13416273 6.87326951 100.51432698 19 99 C23.31184461 97.80090587 27.08577254 96.15522647 31 94 C31.67546875 93.65066406 32.3509375 93.30132812 33.046875 92.94140625 C40.4189557 88.48879999 45.43930487 78.96660708 48 71 C50.2661713 58.7169707 47.66000304 48.30901609 40.65625 38.02734375 C34.30084392 29.99481662 26.00479519 25.70294386 16 24 C1.75686427 22.41986784 -10.50988085 27.96648081 -19.5 38.93359375 Z " fill="#8902F9" transform="translate(74,7)"/>
<path d="M0 0 C4.75 0.75 4.75 0.75 7 3 C7 4.32 7 5.64 7 7 C7.721875 7.103125 8.44375 7.20625 9.1875 7.3125 C12.27746686 8.06782523 14.39558686 9.19137976 17 11 C17.495 11.99 17.495 11.99 18 13 C16.54986567 15.81416694 14.9006724 18.47501592 13.25 21.17578125 C11.7937784 24.46593193 11.96965088 25.62453336 13 29 C13.33333333 30.66666667 13.66666667 32.33333333 14 34 C14.84304687 34.20496094 15.68609375 34.40992188 16.5546875 34.62109375 C17.65039062 34.89050781 18.74609375 35.15992188 19.875 35.4375 C20.96554688 35.70433594 22.05609375 35.97117188 23.1796875 36.24609375 C26 37 26 37 28 38 C28 44.93 28 51.86 28 59 C24.32677966 60.57423729 20.89050372 62.03949046 17.1875 63.375 C13.90132525 64.7084698 13.90132525 64.7084698 12.5 67.375 C11.56376649 72.29022594 13.31278172 75.98611868 15.5625 80.3125 C16.366875 81.859375 17.17125 83.40625 18 85 C10.575 92.425 10.575 92.425 3 100 C0.0703125 98.4375 -2.859375 96.875 -5.7890625 95.3125 C-9.1984113 93.91889757 -11.35891703 93.6358917 -15 94 C-18.30101131 95.39924945 -18.30101131 95.39924945 -21 97 C-21.0825 96.38125 -21.165 95.7625 -21.25 95.125 C-21.81886299 92.84284382 -21.81886299 92.84284382 -23.9375 91.6875 C-24.618125 91.460625 -25.29875 91.23375 -26 91 C-26.99 91.495 -26.99 91.495 -28 92 C-28.33 91.34 -28.66 90.68 -29 90 C-31.12576782 89.53348793 -31.12576782 89.53348793 -33.5625 89.375 C-34.38878906 89.30023438 -35.21507813 89.22546875 -36.06640625 89.1484375 C-37.02353516 89.07496094 -37.02353516 89.07496094 -38 89 C-38 88.67 -38 88.34 -38 88 C-37.16855469 87.93941406 -36.33710937 87.87882812 -35.48046875 87.81640625 C-34.39378906 87.73261719 -33.30710937 87.64882812 -32.1875 87.5625 C-31.10855469 87.48128906 -30.02960938 87.40007812 -28.91796875 87.31640625 C-25.94010095 87.09787539 -25.94010095 87.09787539 -23 86 C-22.505 85.01 -22.505 85.01 -22 84 C-20.09498755 82.93941818 -18.15030819 81.94936309 -16.1875 81 C-15.12917969 80.484375 -14.07085937 79.96875 -12.98046875 79.4375 C-11.25257545 78.60412551 -9.51043599 77.79707191 -7.73828125 77.0625 C-5.45652677 75.66780962 -5.04503906 74.45521225 -4 72 C-3.44183594 70.98808594 -2.88367188 69.97617188 -2.30859375 68.93359375 C3.52097628 58.04118211 5.5763699 49.08064484 2 37 C1.01488198 34.6603447 0.01529541 32.32671865 -1 30 C-1.78072163 27.02080456 -2.41720846 24.02365963 -3 21 C-3.99 21 -4.98 21 -6 21 C-6 20.34 -6 19.68 -6 19 C-6.99 18.67 -7.98 18.34 -9 18 C-9 17.34 -9 16.68 -9 16 C-9.78375 15.87625 -10.5675 15.7525 -11.375 15.625 C-14 15 -14 15 -16 13 C-16.33 12.34 -16.66 11.68 -17 11 C-19.32156597 10.59270772 -21.6568787 10.25561323 -24 10 C-23.67 9.01 -23.34 8.02 -23 7 C-19.72626167 5.36313083 -16.1027442 5.53434385 -12.5 5.3125 C-11.71496094 5.25255859 -10.92992188 5.19261719 -10.12109375 5.13085938 C-8.08425092 5.00333834 -6.04082131 4.99377798 -4 5 C-3.34 5.66 -2.68 6.32 -2 7 C0.06874034 7.6425235 0.06874034 7.6425235 2 8 C2 7.34 2 6.68 2 6 C0.68 5.67 -0.64 5.34 -2 5 C-1.34 3.35 -0.68 1.7 0 0 Z " fill="#C804F7" transform="translate(118,20)"/>
<path d="M0 0 C0.33 0.99 0.66 1.98 1 3 C0.67 3.66 0.34 4.32 0 5 C0.99 5 1.98 5 3 5 C3 5.66 3 6.32 3 7 C3.66 7.33 4.32 7.66 5 8 C5.37309899 9.65821773 5.70700977 11.32577014 6 13 C7.15016254 14.36222307 7.15016254 14.36222307 10.25 14.3125 C14.46739075 15.0856883 15.75426168 16.32790426 19 19 C28.92511119 25.02482788 38.82173013 24.52617379 50 24 C49 26 49 26 45.9375 27.125 C44.968125 27.41375 43.99875 27.7025 43 28 C45.31 28.66 47.62 29.32 50 30 C50 30.66 50 31.32 50 32 C50.99 32.33 51.98 32.66 53 33 C52.34 33 51.68 33 51 33 C51.33 33.66 51.66 34.32 52 35 C52.7425 34.484375 53.485 33.96875 54.25 33.4375 C57 32 57 32 59.3125 32.3125 C59.869375 32.539375 60.42625 32.76625 61 33 C59.89527344 33.33644531 58.79054688 33.67289063 57.65234375 34.01953125 C54.22165565 35.48982615 54.05897112 35.86476548 52.44140625 39.57421875 C52.11301272 40.93726183 51.82684237 42.31060063 51.5625 43.6875 C51.046875 46.100625 50.53125 48.51375 50 51 C42.74 51 35.48 51 28 51 C26.68 45.72 25.36 40.44 24 35 C22.35 34.67 20.7 34.34 19 34 C18.20207031 33.75378906 17.40414062 33.50757813 16.58203125 33.25390625 C12.92697354 32.89448303 10.8873652 34.21449566 7.6875 35.9375 C6.61886719 36.50339844 5.55023438 37.06929687 4.44921875 37.65234375 C3.64097656 38.09707031 2.83273438 38.54179688 2 39 C-2.22080254 35.1860218 -4.82266868 30.19937981 -7 25 C-6.9375 21.125 -6.9375 21.125 -6 18 C-5.814375 17.030625 -5.62875 16.06125 -5.4375 15.0625 C-5.293125 14.381875 -5.14875 13.70125 -5 13 C-4.34 13 -3.68 13 -3 13 C-1.79371992 10.66785852 -0.8345262 8.50357861 0 6 C-1.32 6.33 -2.64 6.66 -4 7 C-3.43628586 3.73045798 -2.50037734 2.17424117 0 0 Z " fill="#A102FA" transform="translate(46,81)"/>
<path d="M0 0 C7.26 0 14.52 0 22 0 C22.474375 2.248125 22.94875 4.49625 23.4375 6.8125 C24.34739387 10.31661037 25.21333073 13.25819171 27.91796875 15.80859375 C30.53379121 16.92436935 32.15809066 17.25634641 35 17 C37.84812321 15.69061392 40.22444259 14.19051131 42.73828125 12.3203125 C45 11 45 11 46.99609375 11.01953125 C49.80484891 12.39379547 51.59313721 14.31048149 53.75 16.5625 C54.54921875 17.38878906 55.3484375 18.21507813 56.171875 19.06640625 C56.77515625 19.70449219 57.3784375 20.34257812 58 21 C53.38461538 21 53.38461538 21 51 20 C50.690625 19.195625 50.38125 18.39125 50.0625 17.5625 C49.22618194 14.75492583 49.22618194 14.75492583 46.375 13.6875 C45.199375 13.3471875 45.199375 13.3471875 44 13 C43.67 14.65 43.34 16.3 43 18 C44.485 18.495 44.485 18.495 46 19 C46 19.66 46 20.32 46 21 C41 20 41 20 38.8125 19.4375 C35.21780911 18.87832586 31.78987892 19.13758903 28.1875 19.4375 C27.49462891 19.48970703 26.80175781 19.54191406 26.08789062 19.59570312 C24.39145563 19.72439819 22.69565137 19.86136184 21 20 C21 20.66 21 21.32 21 22 C21.56589844 22.18175781 22.13179687 22.36351563 22.71484375 22.55078125 C23.44832031 22.80214844 24.18179688 23.05351562 24.9375 23.3125 C25.66839844 23.55613281 26.39929688 23.79976562 27.15234375 24.05078125 C29 25 29 25 30 28 C30.763125 28.103125 31.52625 28.20625 32.3125 28.3125 C35.18416484 29.04711194 36.23042094 29.6716065 38 32 C38 32.66 38 33.32 38 34 C38.99 34 39.98 34 41 34 C43 37 43 37 42.625 39.1875 C42.41875 39.785625 42.2125 40.38375 42 41 C41.195625 39.96875 40.39125 38.9375 39.5625 37.875 C32.5544973 29.78632399 24.03576424 25.89148694 13.46484375 24.71875 C3.16599554 24.3270347 -6.10917878 27.36802575 -14 34 C-16.16010641 36.22500231 -18.08564514 38.56468956 -20 41 C-20.66 41.66 -21.32 42.32 -22 43 C-21.58286812 38.1334614 -19.54534674 36.20769467 -16 33 C-15.38125 32.505 -14.7625 32.01 -14.125 31.5 C-13.75375 31.005 -13.3825 30.51 -13 30 C-13.35232207 27.57061311 -13.35232207 27.57061311 -14 25 C-13.5625 22.1875 -13.5625 22.1875 -13 20 C-14.23944276 19.13058506 -15.49207059 18.27994543 -16.75 17.4375 C-17.44609375 16.96183594 -18.1421875 16.48617188 -18.859375 15.99609375 C-20.91101061 14.8312025 -20.91101061 14.8312025 -23.00390625 15.140625 C-25.46307231 16.19936577 -27.17427683 17.54856901 -29.1875 19.3125 C-29.88230469 19.90675781 -30.57710937 20.50101563 -31.29296875 21.11328125 C-33.12684597 23.14019818 -33.66592477 24.31626234 -34 27 C-33.67751743 28.33599921 -33.34227417 29.66893378 -33 31 C-32.96111651 33.33300933 -32.9551365 35.66709801 -33 38 C-35.79018264 34.5122717 -38.06137816 31.0208453 -40 27 C-38.8014023 22.71798685 -34.97392135 19.7554504 -31.875 16.75 C-31.31167969 16.19570313 -30.74835937 15.64140625 -30.16796875 15.0703125 C-28.78313972 13.70895515 -27.39216796 12.35385141 -26 11 C-22.51862648 12.07119185 -19.62327077 13.09558424 -16.6875 15.25 C-13.52986454 17.17573284 -11.64264301 17.05805736 -8.0625 16.25 C-6.70070972 15.8589684 -5.34319679 15.45077806 -4 15 C-3.52029877 13.25014646 -3.04126076 11.50011109 -2.5625 9.75 C-2.29566406 8.77546875 -2.02882812 7.8009375 -1.75390625 6.796875 C-1.14493079 4.53767069 -0.56749476 2.26997905 0 0 Z " fill="#9C0DE6" transform="translate(74,7)"/>
<path d="M0 0 C2.89549088 0.89622337 5.07872153 2.18027021 7.625 3.8125 C8.95108822 4.49346422 10.28186601 5.16580586 11.625 5.8125 C11.25 7.75 11.25 7.75 10.625 9.8125 C9.635 10.3075 9.635 10.3075 8.625 10.8125 C8.91375 11.51375 9.2025 12.215 9.5 12.9375 C9.625 15.8125 9.625 15.8125 8.42578125 17.48046875 C6.88393379 19.0521825 5.39833475 20.50606858 3.625 21.8125 C2.965 21.8125 2.305 21.8125 1.625 21.8125 C1.356875 22.616875 1.08875 23.42125 0.8125 24.25 C0.420625 25.095625 0.02875 25.94125 -0.375 26.8125 C-3.375 27.8125 -3.375 27.8125 -6.3125 26.4375 C-10.28710115 23.59283533 -12.05517498 19.41636022 -13.375 14.8125 C-13.81864202 11.5183305 -13.76261235 10.3234854 -11.73046875 7.64453125 C-11.01503906 6.97808594 -10.29960938 6.31164062 -9.5625 5.625 C-8.50095703 4.61373047 -8.50095703 4.61373047 -7.41796875 3.58203125 C-3.00823218 -0.23749201 -3.00823218 -0.23749201 0 0 Z " fill="#9402FA" transform="translate(52.375,21.1875)"/>
<path d="M0 0 C1.25425781 0.00902344 2.50851563 0.01804687 3.80078125 0.02734375 C4.75339844 0.03894531 5.70601562 0.05054688 6.6875 0.0625 C10.13169134 9.47252278 10.13169134 9.47252278 9.6875 14.0625 C9.0275 14.0625 8.3675 14.0625 7.6875 14.0625 C7.6875 15.0525 7.6875 16.0425 7.6875 17.0625 C5.7075 17.0625 3.7275 17.0625 1.6875 17.0625 C1.3575 18.0525 1.0275 19.0425 0.6875 20.0625 C-9.30812363 20.69269694 -9.30812363 20.69269694 -13.5 18.0625 C-14.098125 17.4025 -14.69625 16.7425 -15.3125 16.0625 C-14.9825 15.4025 -14.6525 14.7425 -14.3125 14.0625 C-12.9925 14.0625 -11.6725 14.0625 -10.3125 14.0625 C-10.3125 11.0925 -10.3125 8.1225 -10.3125 5.0625 C-9.6525 5.0625 -8.9925 5.0625 -8.3125 5.0625 C-8.3125 4.4025 -8.3125 3.7425 -8.3125 3.0625 C-9.6325 3.0625 -10.9525 3.0625 -12.3125 3.0625 C-12.3125 2.4025 -12.3125 1.7425 -12.3125 1.0625 C-8.15623632 0.05323521 -4.26884906 -0.03989579 0 0 Z " fill="#B002FB" transform="translate(88.3125,8.9375)"/>
<path d="M0 0 C1.32 0 2.64 0 4 0 C4.33 1.32 4.66 2.64 5 4 C6.2065625 3.7215625 6.2065625 3.7215625 7.4375 3.4375 C8.7059375 3.2209375 8.7059375 3.2209375 10 3 C11 4 11 4 11.11352539 5.76586914 C11.10828857 6.51473389 11.10305176 7.26359863 11.09765625 8.03515625 C11.09443359 8.84404297 11.09121094 9.65292969 11.08789062 10.48632812 C11.07951172 11.33646484 11.07113281 12.18660156 11.0625 13.0625 C11.05798828 13.91650391 11.05347656 14.77050781 11.04882812 15.65039062 C11.03700373 17.76695663 11.01906769 19.88348685 11 22 C8.91835982 22.36398622 6.83459438 22.71583287 4.75 23.0625 C3.00976562 23.35833984 3.00976562 23.35833984 1.234375 23.66015625 C-1.6893065 23.96735467 -3.27011081 23.86365963 -6 23 C-6.99 23 -7.98 23 -9 23 C-8.67 22.071875 -8.34 21.14375 -8 20.1875 C-6.54010305 15.19095127 -6.83215198 10.1566642 -7 5 C-6.34 5 -5.68 5 -5 5 C-5 4.34 -5 3.68 -5 3 C-4.01 2.67 -3.02 2.34 -2 2 C-1.67 3.32 -1.34 4.64 -1 6 C-0.01 6 0.98 6 2 6 C1.34 5.01 0.68 4.02 0 3 C0 2.01 0 1.02 0 0 Z " fill="#D701FC" transform="translate(132,58)"/>
<path d="M0 0 C0.66 0.99 1.32 1.98 2 3 C4.88168555 4.84452717 7.58118579 5.78794042 11 6 C13.8819462 4.72521212 16.21262186 3.19930547 18.73828125 1.3203125 C21 0 21 0 22.99609375 0.01953125 C25.80484891 1.39379547 27.59313721 3.31048149 29.75 5.5625 C30.54921875 6.38878906 31.3484375 7.21507812 32.171875 8.06640625 C32.77515625 8.70449219 33.3784375 9.34257812 34 10 C29.38461538 10 29.38461538 10 27 9 C26.690625 8.195625 26.38125 7.39125 26.0625 6.5625 C25.22618194 3.75492583 25.22618194 3.75492583 22.375 2.6875 C21.59125 2.460625 20.8075 2.23375 20 2 C19.67 3.65 19.34 5.3 19 7 C19.99 7.33 20.98 7.66 22 8 C22 8.66 22 9.32 22 10 C17 9 17 9 14.8125 8.4375 C11.21780911 7.87832586 7.78987892 8.13758903 4.1875 8.4375 C3.14819336 8.51581055 3.14819336 8.51581055 2.08789062 8.59570312 C0.39145563 8.72439819 -1.30434863 8.86136184 -3 9 C-3 9.66 -3 10.32 -3 11 C-2.43410156 11.18175781 -1.86820313 11.36351562 -1.28515625 11.55078125 C-0.55167969 11.80214844 0.18179688 12.05351562 0.9375 12.3125 C1.66839844 12.55613281 2.39929688 12.79976562 3.15234375 13.05078125 C5 14 5 14 6 17 C6.763125 17.103125 7.52625 17.20625 8.3125 17.3125 C11.18416484 18.04711194 12.23042094 18.6716065 14 21 C14 21.66 14 22.32 14 23 C14.99 23 15.98 23 17 23 C19 26 19 26 18.625 28.1875 C18.41875 28.785625 18.2125 29.38375 18 30 C17.195625 28.96875 16.39125 27.9375 15.5625 26.875 C8.5544973 18.78632399 0.03576424 14.89148694 -10.53515625 13.71875 C-20.83400446 13.3270347 -30.10917878 16.36802575 -38 23 C-40.16010641 25.22500231 -42.08564514 27.56468956 -44 30 C-44.66 30.66 -45.32 31.32 -46 32 C-45.57815258 27.07844679 -43.61671555 25.23195858 -40 22 C-39.33871094 21.40574219 -38.67742188 20.81148437 -37.99609375 20.19921875 C-29.58095138 12.71392636 -29.58095138 12.71392636 -22 13 C-22 12.34 -22 11.68 -22 11 C-20.60974609 10.92652344 -20.60974609 10.92652344 -19.19140625 10.8515625 C-17.99386719 10.77679688 -16.79632813 10.70203125 -15.5625 10.625 C-14.36753906 10.55539063 -13.17257813 10.48578125 -11.94140625 10.4140625 C-10.97074219 10.27742188 -10.00007813 10.14078125 -9 10 C-8.67 9.34 -8.34 8.68 -8 8 C-6.0625 7.3125 -6.0625 7.3125 -4 7 C-3.34 7.33 -2.68 7.66 -2 8 C-2 7.01 -2 6.02 -2 5 C-1.34 5 -0.68 5 0 5 C0 3.35 0 1.7 0 0 Z " fill="#B307EF" transform="translate(98,18)"/>
<path d="M0 0 C2.078125 -0.39453125 2.078125 -0.39453125 5 0 C7.5289984 1.83252998 9.6086461 4.0484393 11.75 6.3125 C12.33910156 6.90740234 12.92820312 7.50230469 13.53515625 8.11523438 C17.85206359 12.55619078 17.85206359 12.55619078 19 16 C17.03970417 18.96623712 14.4460292 21.42745205 12 24 C11.38898438 24.69738281 10.77796875 25.39476563 10.1484375 26.11328125 C8.50465058 27.91999859 6.96734615 29.55136032 5 31 C2.0625 30.9375 2.0625 30.9375 0 30 C0.151952 24.98558397 2.92701329 22.66645254 6.30859375 19.35546875 C8 18 8 18 10 18 C9.66595519 14.94662164 9.39680865 13.39595346 7.1875 11.19140625 C6.1046875 10.38509766 6.1046875 10.38509766 5 9.5625 C1.11640572 6.40014466 1.11640572 6.40014466 0 2.5625 C0 1.716875 0 0.87125 0 0 Z " fill="#A013DE" transform="translate(96,54)"/>
<path d="M0 0 C0.99 0 1.98 0 3 0 C3.1753125 0.77859375 3.350625 1.5571875 3.53125 2.359375 C4.82698988 5.34956292 4.82698988 5.34956292 8.40625 6.328125 C9.76585066 6.65676142 11.13092355 6.9633896 12.5 7.25 C19.95644599 8.978223 19.95644599 8.978223 22 10 C22 16.93 22 23.86 22 31 C21.01 31.33 20.02 31.66 19 32 C18.67 26.06 18.34 20.12 18 14 C16.35 14 14.7 14 13 14 C12.67 12.68 12.34 11.36 12 10 C10.68 10 9.36 10 8 10 C8.66 11.98 9.32 13.96 10 16 C9.01 16 8.02 16 7 16 C6.34 15.01 5.68 14.02 5 13 C4.34 13 3.68 13 3 13 C3 13.66 3 14.32 3 15 C2.34 15 1.68 15 1 15 C1.33 15.99 1.66 16.98 2 18 C2.11687338 19.47586615 2.17501742 20.95706612 2.1875 22.4375 C2.20167969 23.19933594 2.21585937 23.96117188 2.23046875 24.74609375 C1.97612666 27.23347315 1.24017196 28.84808106 0 31 C-1.20594657 28.58810686 -1.10004165 27.11131717 -1.0625 24.421875 C-1.05476563 23.50792969 -1.04703125 22.59398438 -1.0390625 21.65234375 C-1.01323109 19.73307008 -0.98719288 17.81379917 -0.9609375 15.89453125 C-0.92779819 11.95647717 -0.93953562 8.34313533 -1.625 4.453125 C-1.74875 3.64359375 -1.8725 2.8340625 -2 2 C-1.34 1.34 -0.68 0.68 0 0 Z " fill="#D003F9" transform="translate(124,48)"/>
<path d="M0 0 C1.17246771 4.09902098 1.07076062 7.75436258 1 12 C-0.32 12 -1.64 12 -3 12 C-3.33 12.99 -3.66 13.98 -4 15 C-4.99 15 -5.98 15 -7 15 C-7.66 16.98 -8.32 18.96 -9 21 C-10.32 20.67 -11.64 20.34 -13 20 C-15.09350689 23.4019487 -15.17942163 26.05272412 -15 30 C-13.02 30 -11.04 30 -9 30 C-9 30.66 -9 31.32 -9 32 C-7.68 32.33 -6.36 32.66 -5 33 C-5 33.66 -5 34.32 -5 35 C-5.86625 34.67 -6.7325 34.34 -7.625 34 C-12.58542167 32.53024543 -15.60603618 32.38046052 -20.375 34.5 C-21.24125 34.995 -22.1075 35.49 -23 36 C-23.0825 35.38125 -23.165 34.7625 -23.25 34.125 C-23.81886299 31.84284382 -23.81886299 31.84284382 -25.9375 30.6875 C-26.9584375 30.3471875 -26.9584375 30.3471875 -28 30 C-28.66 30.33 -29.32 30.66 -30 31 C-30.33 30.34 -30.66 29.68 -31 29 C-33.12576782 28.53348793 -33.12576782 28.53348793 -35.5625 28.375 C-36.38878906 28.30023438 -37.21507813 28.22546875 -38.06640625 28.1484375 C-38.70449219 28.09945312 -39.34257813 28.05046875 -40 28 C-40 27.67 -40 27.34 -40 27 C-39.16855469 26.93941406 -38.33710937 26.87882812 -37.48046875 26.81640625 C-35.85044922 26.69072266 -35.85044922 26.69072266 -34.1875 26.5625 C-33.10855469 26.48128906 -32.02960938 26.40007812 -30.91796875 26.31640625 C-27.94010095 26.09787539 -27.94010095 26.09787539 -25 25 C-24.67 24.34 -24.34 23.68 -24 23 C-22.09498755 21.93941818 -20.15030819 20.94936309 -18.1875 20 C-17.12917969 19.484375 -16.07085937 18.96875 -14.98046875 18.4375 C-13.25257545 17.60412551 -11.51043599 16.79707191 -9.73828125 16.0625 C-7.46872295 14.67526437 -7.03126523 13.437536 -6 11 C-4.96482025 9.07982203 -3.92277754 7.1633329 -2.875 5.25 C-2.33617187 4.26515625 -1.79734375 3.2803125 -1.2421875 2.265625 C-0.83226562 1.51796875 -0.42234375 0.7703125 0 0 Z " fill="#B508F1" transform="translate(120,81)"/>
<path d="M0 0 C0.68578125 0.29261719 1.3715625 0.58523437 2.078125 0.88671875 C1.45120474 5.99495792 -2.45529003 8.40597164 -6.0859375 11.66796875 C-8.11949092 13.66391725 -8.11949092 13.66391725 -7.984375 15.88671875 C-6.04956493 19.52871417 -2.79144004 21.94237109 0.2421875 24.66796875 C0.84804687 25.40015625 1.45390625 26.13234375 2.078125 26.88671875 C1.8515625 29.16796875 1.8515625 29.16796875 1.078125 30.88671875 C-4.41763028 30.60674631 -7.15553261 27.28403771 -10.796875 23.57421875 C-11.70566406 22.70120117 -11.70566406 22.70120117 -12.6328125 21.81054688 C-13.2 21.24142578 -13.7671875 20.67230469 -14.3515625 20.0859375 C-14.86960449 19.56862061 -15.38764648 19.05130371 -15.92138672 18.51831055 C-16.921875 16.88671875 -16.921875 16.88671875 -16.75537109 14.89111328 C-15.24408296 11.25676191 -12.41506911 8.82641678 -9.671875 6.07421875 C-9.09824219 5.46384766 -8.52460937 4.85347656 -7.93359375 4.22460938 C-3.61318753 -0.14008347 -3.61318753 -0.14008347 0 0 Z " fill="#900AEB" transform="translate(69.921875,54.11328125)"/>
<path d="M0 0 C0.66 0.33 1.32 0.66 2 1 C1.525625 2.051875 1.05125 3.10375 0.5625 4.1875 C-0.69323741 7.10175851 -1.52234381 9.84746914 -2 13 C-2.60328125 12.9278125 -3.2065625 12.855625 -3.828125 12.78125 C-4.62734375 12.6884375 -5.4265625 12.595625 -6.25 12.5 C-7.03890625 12.4071875 -7.8278125 12.314375 -8.640625 12.21875 C-11.26890397 11.93845381 -11.26890397 11.93845381 -15 12 C-16.05619003 16.28297531 -16.11702092 20.42985646 -16.0625 24.8125 C-16.05798828 25.50537109 -16.05347656 26.19824219 -16.04882812 26.91210938 C-16.03713156 28.60811068 -16.01919924 30.30406703 -16 32 C-14.91074219 31.97679688 -13.82148438 31.95359375 -12.69921875 31.9296875 C-8.4880069 32.00973165 -6.48929615 32.67380256 -3 35 C0.50146207 38.68574954 1.25155215 41.50072393 1.3125 46.4375 C1.21523339 49.70919497 0.89571694 52.47328468 0.1875 55.6875 C-0.05713389 60.00936546 1.4577892 61.90163485 3.96875 65.30078125 C4.3090625 65.86152344 4.649375 66.42226562 5 67 C4.67 67.66 4.34 68.32 4 69 C2.29490284 67.45672226 0.6113326 65.8896325 -1.0625 64.3125 C-2.00222656 63.44238281 -2.94195312 62.57226562 -3.91015625 61.67578125 C-6 59 -6 59 -5.94140625 56.3828125 C-5.08572251 54.21697399 -4.18707654 52.47556265 -2.875 50.5625 C-1.24943965 47.85323276 -0.9949086 47.12983061 -1.125 43.8125 C-1.41375 42.884375 -1.7025 41.95625 -2 41 C-2.20109375 40.32839844 -2.4021875 39.65679687 -2.609375 38.96484375 C-4.7948079 35.87699895 -7.54073582 35.66235816 -11.125 34.75 C-14.528125 33.88375 -14.528125 33.88375 -18 33 C-18 25.74 -18 18.48 -18 11 C-5.25 7 -5.25 7 -3 7 C-2.690625 6.030625 -2.38125 5.06125 -2.0625 4.0625 C-1 1 -1 1 0 0 Z " fill="#7019C5" transform="translate(40,47)"/>
<path d="M0 0 C2.125 0.9375 2.125 0.9375 4 2 C2.78392968 8.74366267 1.20682759 15.36649152 -0.5 22 C-0.82037231 23.27387573 -0.82037231 23.27387573 -1.1472168 24.57348633 C-1.35644775 25.37423584 -1.56567871 26.17498535 -1.78125 27 C-1.96751953 27.721875 -2.15378906 28.44375 -2.34570312 29.1875 C-3 31 -3 31 -5 33 C-7.125 32.625 -7.125 32.625 -9 32 C-8.40658597 24.90833609 -6.96180401 18.35024754 -5.0625 11.5 C-4.79759766 10.4996875 -4.53269531 9.499375 -4.25976562 8.46875 C-4.00001953 7.52 -3.74027344 6.57125 -3.47265625 5.59375 C-3.12086304 4.30500977 -3.12086304 4.30500977 -2.76196289 2.99023438 C-2 1 -2 1 0 0 Z " fill="#A20AEA" transform="translate(86,53)"/>
<path d="M0 0 C0 3.20376676 -0.64755062 5.60526405 -1.5 8.6875 C-3.95739166 18.44685546 -3.67031623 27.70536097 1.53515625 36.6328125 C2.59021172 38.18421794 3.6738147 39.71683584 4.79296875 41.22265625 C6 43 6 43 6 45 C3.525 45.495 3.525 45.495 1 46 C-1.29633824 42.55549263 -1.54016485 40.06187717 -2 36 C-2.99 36 -3.98 36 -5 36 C-5.6605736 28.98667601 -6.23525879 21.97320262 -6.71875 14.9453125 C-6.97751242 12.23549489 -7.41205329 9.6555593 -8 7 C-7.01 7 -6.02 7 -5 7 C-4.9175 6.401875 -4.835 5.80375 -4.75 5.1875 C-3.79544128 2.4033704 -2.42867729 1.56688858 0 0 Z " fill="#8410DE" transform="translate(51,50)"/>
<path d="M0 0 C3.4893114 1.07513796 6.41357335 2.11536759 9.375 4.25 C11.5885294 5.59693511 12.61261549 6.03267919 15.22265625 5.8125 C17.68799899 5.22120824 17.68799899 5.22120824 21 4 C19.69007757 6.61984486 18.74954328 7.03394425 16 8 C12.49330711 7.77616854 10.37312545 7.23098242 7.375 5.375 C5.18088687 3.79161206 5.18088687 3.79161206 3.11328125 4.20703125 C0.52761587 5.17725319 -1.11262082 6.4945477 -3.1875 8.3125 C-3.88230469 8.90675781 -4.57710937 9.50101563 -5.29296875 10.11328125 C-7.12684597 12.14019818 -7.66592477 13.31626234 -8 16 C-7.67751743 17.33599921 -7.34227417 18.66893378 -7 20 C-6.96111651 22.33300933 -6.9551365 24.66709801 -7 27 C-9.79018264 23.5122717 -12.06137816 20.0208453 -14 16 C-12.8014023 11.71798685 -8.97392135 8.7554504 -5.875 5.75 C-5.31167969 5.19570313 -4.74835937 4.64140625 -4.16796875 4.0703125 C-2.78313972 2.70895515 -1.39216796 1.35385141 0 0 Z " fill="#8708EE" transform="translate(48,18)"/>
<path d="M0 0 C1.95903745 0.47627975 3.91721097 0.95611423 5.875 1.4375 C6.96554688 1.70433594 8.05609375 1.97117188 9.1796875 2.24609375 C12 3 12 3 14 4 C14 10.93 14 17.86 14 25 C13.01 25.33 12.02 25.66 11 26 C10.67 20.06 10.34 14.12 10 8 C8.35 8 6.7 8 5 8 C4.67 6.68 4.34 5.36 4 4 C2.68 3.67 1.36 3.34 0 3 C0 2.01 0 1.02 0 0 Z " fill="#CD18E6" transform="translate(132,54)"/>
<path d="M0 0 C2.31243792 -0.02685412 4.6249627 -0.04632841 6.9375 -0.0625 C8.22527344 -0.07410156 9.51304688 -0.08570312 10.83984375 -0.09765625 C14 0 14 0 15 1 C16.7015625 1.185625 16.7015625 1.185625 18.4375 1.375 C19.613125 1.58125 20.78875 1.7875 22 2 C22.66 2.99 23.32 3.98 24 5 C23.39414063 4.855625 22.78828125 4.71125 22.1640625 4.5625 C10.18922352 1.90961259 -1.12030011 2.04046517 -11.8125 8.75 C-15.88687699 11.67070035 -18.9201044 15.08196888 -22 19 C-22.66 19.66 -23.32 20.32 -24 21 C-23.57815258 16.07844679 -21.61671555 14.23195858 -18 11 C-17.33871094 10.40574219 -16.67742188 9.81148437 -15.99609375 9.19921875 C-7.58095138 1.71392636 -7.58095138 1.71392636 0 2 C0 1.34 0 0.68 0 0 Z " fill="#9621CB" transform="translate(76,29)"/>
<path d="M0 0 C1.17246771 4.09902098 1.07076062 7.75436258 1 12 C-0.32 12 -1.64 12 -3 12 C-3.33 12.99 -3.66 13.98 -4 15 C-4.99 15 -5.98 15 -7 15 C-7.66 16.98 -8.32 18.96 -9 21 C-9.94875 21.12375 -10.8975 21.2475 -11.875 21.375 C-15.08667191 21.71687177 -15.08667191 21.71687177 -17 24 C-20.625 24.125 -20.625 24.125 -24 24 C-21.36589139 22.2439276 -18.7072988 20.57718841 -16 18.9375 C-15.13375 18.41027344 -14.2675 17.88304688 -13.375 17.33984375 C-11 16 -11 16 -8 15 C-6.92937432 13.23648473 -6.92937432 13.23648473 -6 11 C-4.96482025 9.07982203 -3.92277754 7.1633329 -2.875 5.25 C-2.33617188 4.26515625 -1.79734375 3.2803125 -1.2421875 2.265625 C-0.83226563 1.51796875 -0.42234375 0.7703125 0 0 Z " fill="#A81ED1" transform="translate(120,81)"/>
<path d="M0 0 C0.495 0.66 0.99 1.32 1.5 2 C4.26042163 5.31250596 7.29738227 8.14215089 10.48828125 11.03515625 C12 13 12 13 11.73046875 15.24609375 C11.48941406 15.82488281 11.24835938 16.40367188 11 17 C6.07215495 16.582687 4.0222855 14.45014073 0.6875 10.9375 C-0.19550781 10.01839844 -1.07851563 9.09929687 -1.98828125 8.15234375 C-2.65214844 7.44207031 -3.31601562 6.73179688 -4 6 C-2.66666667 6 -1.33333333 6 0 6 C0 4.02 0 2.04 0 0 Z " fill="#B310E6" transform="translate(60,68)"/>
<path d="M0 0 C0.515625 0.2475 1.03125 0.495 1.5625 0.75 C0.45777344 1.08644531 -0.64695313 1.42289062 -1.78515625 1.76953125 C-5.21584435 3.23982615 -5.37852888 3.61476548 -6.99609375 7.32421875 C-7.32448728 8.68726183 -7.61065763 10.06060063 -7.875 11.4375 C-8.390625 13.850625 -8.90625 16.26375 -9.4375 18.75 C-16.6975 18.75 -23.9575 18.75 -31.4375 18.75 C-32.7575 13.8 -34.0775 8.85 -35.4375 3.75 C-34.4475 4.08 -33.4575 4.41 -32.4375 4.75 C-30.69337821 9.43159006 -30.4375 12.64690112 -30.4375 17.75 C-23.8375 17.75 -17.2375 17.75 -10.4375 17.75 C-10.458125 15.996875 -10.47875 14.24375 -10.5 12.4375 C-10.53881595 9.13814456 -10.48726964 6.89930893 -9.4375 3.75 C-6.5662068 1.42884959 -3.73198135 -0.38276732 0 0 Z " fill="#902FC4" transform="translate(105.4375,113.25)"/>
<path d="M0 0 C0.99 1.485 0.99 1.485 2 3 C4.88168555 4.84452717 7.58118579 5.78794042 11 6 C13.8819462 4.72521212 16.21262186 3.19930547 18.73828125 1.3203125 C21 0 21 0 22.99609375 0.01953125 C25.80484891 1.39379547 27.59313721 3.31048149 29.75 5.5625 C30.54921875 6.38878906 31.3484375 7.21507812 32.171875 8.06640625 C32.77515625 8.70449219 33.3784375 9.34257812 34 10 C29.38461538 10 29.38461538 10 27 9 C26.5359375 7.7934375 26.5359375 7.7934375 26.0625 6.5625 C25.22618194 3.75492583 25.22618194 3.75492583 22.375 2.6875 C21.59125 2.460625 20.8075 2.23375 20 2 C19.67 3.65 19.34 5.3 19 7 C19.99 7.33 20.98 7.66 22 8 C22 8.66 22 9.32 22 10 C17 9 17 9 14.5625 8.5 C12.7371472 8.1438336 10.90198633 7.83646605 9.0625 7.5625 C5.90704497 6.98292663 3.01782318 6.07779399 0 5 C0 3.35 0 1.7 0 0 Z " fill="#AD17D8" transform="translate(98,18)"/>
<path d="M0 0 C2.16796875 -0.3125 2.16796875 -0.3125 5 0 C7.67578125 2.1875 7.67578125 2.1875 10.3125 5 C11.19550781 5.928125 12.07851562 6.85625 12.98828125 7.8125 C13.65214844 8.534375 14.31601563 9.25625 15 10 C11.89448334 10 10.64738916 9.4606285 8 8 C8.33 9.32 8.66 10.64 9 12 C1.31509847 7.06345733 1.31509847 7.06345733 0 2.625 C0 1.75875 0 0.8925 0 0 Z " fill="#871AD9" transform="translate(96,54)"/>
<path d="M0 0 C0.66 0.33 1.32 0.66 2 1 C1.525625 2.051875 1.05125 3.10375 0.5625 4.1875 C-0.69323741 7.10175851 -1.52234381 9.84746914 -2 13 C-2.60328125 12.9278125 -3.2065625 12.855625 -3.828125 12.78125 C-4.62734375 12.6884375 -5.4265625 12.595625 -6.25 12.5 C-7.03890625 12.4071875 -7.8278125 12.314375 -8.640625 12.21875 C-11.26890397 11.93845381 -11.26890397 11.93845381 -15 12 C-15.33 12.99 -15.66 13.98 -16 15 C-16.33 13.68 -16.66 12.36 -17 11 C-12.29593201 9.13459373 -8.05255964 7.63156995 -3 7 C-2.690625 6.030625 -2.38125 5.06125 -2.0625 4.0625 C-1 1 -1 1 0 0 Z " fill="#8207EC" transform="translate(40,47)"/>
<path d="M0 0 C1 3 1 3 0.25 6.1875 C-0.05955344 10.90818997 1.24295482 12.61080852 3.96875 16.30078125 C4.47921875 17.14189453 4.47921875 17.14189453 5 18 C4.67 18.66 4.34 19.32 4 20 C2.29490284 18.45672226 0.6113326 16.8896325 -1.0625 15.3125 C-2.00222656 14.44238281 -2.94195312 13.57226562 -3.91015625 12.67578125 C-6 10 -6 10 -5.96875 7.34375 C-4.64448672 4.13988723 -2.55386041 2.29192601 0 0 Z " fill="#7C12D7" transform="translate(40,96)"/>
<path d="M0 0 C0.68578125 0.29261719 1.3715625 0.58523437 2.078125 0.88671875 C1.50853347 4.51285074 0.15437966 6.14189616 -2.484375 8.63671875 C-3.12503906 9.2503125 -3.76570313 9.86390625 -4.42578125 10.49609375 C-4.91949219 10.955 -5.41320312 11.41390625 -5.921875 11.88671875 C-5.921875 8.88671875 -5.921875 8.88671875 -4.921875 5.88671875 C-3.58854167 5.22005208 -2.25520833 4.55338542 -0.921875 3.88671875 C-0.591875 2.89671875 -0.261875 1.90671875 0.078125 0.88671875 C-9.59686638 8.39115602 -9.59686638 8.39115602 -14.921875 18.88671875 C-15.581875 18.22671875 -16.241875 17.56671875 -16.921875 16.88671875 C-16.41136717 12.03627778 -12.94922454 9.36232546 -9.671875 6.07421875 C-9.09824219 5.46384766 -8.52460937 4.85347656 -7.93359375 4.22460938 C-3.61318753 -0.14008347 -3.61318753 -0.14008347 0 0 Z " fill="#8D25B3" transform="translate(69.921875,54.11328125)"/>
<path d="M0 0 C2.125 0.9375 2.125 0.9375 4 2 C3.71572583 3.58467728 3.42225182 5.1677057 3.125 6.75 C2.96257812 7.63171875 2.80015625 8.5134375 2.6328125 9.421875 C2.03203736 11.86947744 1.22002883 13.80599857 0 16 C0 13.36 0 10.72 0 8 C-0.99 8.495 -0.99 8.495 -2 9 C-2.73075648 11.3140622 -3.40138258 13.64828869 -4 16 C-5.27847309 12.38766999 -4.71332411 9.95393249 -3.6875 6.3125 C-3.42324219 5.33925781 -3.15898438 4.36601563 -2.88671875 3.36328125 C-2 1 -2 1 0 0 Z " fill="#AA1DD0" transform="translate(86,53)"/>
<path d="M0 0 C6.13053511 -0.32712342 10.62669111 -0.39366878 16 3 C15.01 3.33 14.02 3.66 13 4 C12.38125 3.67 11.7625 3.34 11.125 3 C8.28881465 1.66532454 7.0050269 2.19547037 4 3 C2.20391888 3.79971495 0.43183488 4.65544586 -1.3125 5.5625 C-2.19550781 6.01753906 -3.07851563 6.47257812 -3.98828125 6.94140625 C-4.65214844 7.29074219 -5.31601562 7.64007813 -6 8 C-6.99 6.68 -7.98 5.36 -9 4 C-6.525 4.495 -6.525 4.495 -4 5 C-4 4.01 -4 3.02 -4 2 C-2.68 2 -1.36 2 0 2 C0 1.34 0 0.68 0 0 Z " fill="#7F18C6" transform="translate(54,112)"/>
<path d="M0 0 C2.7305719 1.63834314 3.8853217 2.74046491 5.1875 5.6875 C7.2756424 14.20069593 8.55663193 24.47789356 6 33 C5.34 33 4.68 33 4 33 C4.09539062 32.10539062 4.19078125 31.21078125 4.2890625 30.2890625 C5.31668853 19.08076924 3.80014443 10.48839862 0 0 Z " fill="#AE24CC" transform="translate(117,48)"/>
<path d="M0 0 C0.66 0.33 1.32 0.66 2 1 C0.02 3.97 0.02 3.97 -2 7 C-0.02 6.34 1.96 5.68 4 5 C2.02 7.31 0.04 9.62 -2 12 C-3.65 11.67 -5.3 11.34 -7 11 C-6.68232368 5.59950264 -3.80003673 3.47662935 0 0 Z " fill="#8122C6" transform="translate(103,73)"/>
<path d="M0 0 C2.29296875 -0.2734375 2.29296875 -0.2734375 5 0 C6.80078125 1.8984375 6.80078125 1.8984375 8.3125 4.375 C8.82425781 5.18710938 9.33601563 5.99921875 9.86328125 6.8359375 C11 9 11 9 11 11 C9.35 11.33 7.7 11.66 6 12 C3.70366176 8.55549263 3.45983515 6.06187717 3 2 C2.01 2 1.02 2 0 2 C0 1.34 0 0.68 0 0 Z " fill="#8912DE" transform="translate(46,84)"/>
<path d="M0 0 C0.515625 0.2475 1.03125 0.495 1.5625 0.75 C-0.0771875 1.1521875 -0.0771875 1.1521875 -1.75 1.5625 C-3.7597852 2.27928763 -3.7597852 2.27928763 -5.4375 3.75 C-6.59651287 6.60066034 -7.24200086 9.33409163 -7.83203125 12.3515625 C-8.03183594 13.14304687 -8.23164062 13.93453125 -8.4375 14.75 C-9.4275 15.245 -9.4275 15.245 -10.4375 15.75 C-10.46462066 14.31260487 -10.48395067 12.87506137 -10.5 11.4375 C-10.51160156 10.63699219 -10.52320312 9.83648437 -10.53515625 9.01171875 C-10.4375 6.75 -10.4375 6.75 -9.4375 3.75 C-6.5662068 1.42884959 -3.73198135 -0.38276732 0 0 Z " fill="#A21ACF" transform="translate(105.4375,113.25)"/>
<path d="M0 0 C8.93630573 1.9044586 8.93630573 1.9044586 11 5 C11 5.66 11 6.32 11 7 C11.99 7 12.98 7 14 7 C16 10 16 10 15.625 12.1875 C15.41875 12.785625 15.2125 13.38375 15 14 C14.195625 12.96875 13.39125 11.9375 12.5625 10.875 C9.4116155 7.15740966 5.88436185 4.71081078 1.7578125 2.1640625 C1.17773438 1.77992187 0.59765625 1.39578125 0 1 C0 0.67 0 0.34 0 0 Z " fill="#AA24D2" transform="translate(101,34)"/>
<path d="M0 0 C0.33 0 0.66 0 1 0 C1.21192221 5.19209404 0.5912689 9.126739 -1 14 C0.32 13.01 1.64 12.02 3 11 C2.67 12.65 2.34 14.3 2 16 C0.0625 16.5625 0.0625 16.5625 -2 17 C-2.33 16.67 -2.66 16.34 -3 16 C-2.84550243 10.46185633 -1.67670682 5.25368138 0 0 Z " fill="#7D27B5" transform="translate(80,69)"/>
<path d="M0 0 C3.59075147 1.33370769 6.84621398 2.80987082 10 5 C10.33 5.99 10.66 6.98 11 8 C10.34 8.66 9.68 9.32 9 10 C8.896875 9.360625 8.79375 8.72125 8.6875 8.0625 C8.460625 7.381875 8.23375 6.70125 8 6 C7.01 5.67 6.02 5.34 5 5 C4.34 6.65 3.68 8.3 3 10 C1.89748835 6.69246505 0.94933899 3.35433109 0 0 Z " fill="#A619D6" transform="translate(104,62)"/>
<path d="M0 0 C1.60031344 3.20062687 0.03173691 5.72271806 -1 9 C-1.66 9 -2.32 9 -3 9 C-3.33 9.99 -3.66 10.98 -4 12 C-4.66 12 -5.32 12 -6 12 C-6 10.02 -6 8.04 -6 6 C-5.01 5.67 -4.02 5.34 -3 5 C-1.8499169 3.03327085 -1.8499169 3.03327085 -1 1 C-0.67 0.67 -0.34 0.34 0 0 Z " fill="#9412DE" transform="translate(85,71)"/>
<path d="M0 0 C1.32 0.66 2.64 1.32 4 2 C4 3.32 4 4.64 4 6 C0.77208445 8.1519437 -0.28400809 8.20086443 -4 8 C-4.33 7.34 -4.66 6.68 -5 6 C-4.01 5.67 -3.02 5.34 -2 5 C-0.78130071 2.49552484 -0.78130071 2.49552484 0 0 Z " fill="#BC0BEF" transform="translate(109,66)"/>
<path d="M0 0 C3.52068852 1.03044542 6.36366045 2.20090459 9.375 4.25 C11.5885294 5.59693511 12.61261549 6.03267919 15.22265625 5.8125 C17.68799899 5.22120824 17.68799899 5.22120824 21 4 C19.69007757 6.61984486 18.74954328 7.03394425 16 8 C12.61419599 7.78388485 10.46033108 7.28328067 7.5625 5.5 C4.39540123 3.64608853 1.62087762 3.354988 -2 3 C-1.34 2.01 -0.68 1.02 0 0 Z " fill="#7E21BC" transform="translate(48,18)"/>
<path d="M0 0 C4 5 4 5 8 10 C5.525 9.01 5.525 9.01 3 8 C2.01 9.485 2.01 9.485 1 11 C-0.65 9.02 -2.3 7.04 -4 5 C-2.68 5.33 -1.36 5.66 0 6 C0 4.02 0 2.04 0 0 Z " fill="#8E1DCA" transform="translate(60,68)"/>
<path d="M0 0 C0.58910156 0.21914063 1.17820312 0.43828125 1.78515625 0.6640625 C1.20507812 1.01597656 0.625 1.36789063 0.02734375 1.73046875 C-5.37395596 5.14416147 -9.28343736 8.66279798 -13.21484375 13.6640625 C-13.87484375 14.3240625 -14.53484375 14.9840625 -15.21484375 15.6640625 C-14.79430273 10.75775056 -12.82264286 8.87970953 -9.21484375 5.6640625 C-8.63863281 5.10847656 -8.06242187 4.55289063 -7.46875 3.98046875 C-6.86933594 3.42230469 -6.26992188 2.86414062 -5.65234375 2.2890625 C-5.09417969 1.76570313 -4.53601562 1.24234375 -3.9609375 0.703125 C-2.21484375 -0.3359375 -2.21484375 -0.3359375 0 0 Z " fill="#8223BC" transform="translate(67.21484375,34.3359375)"/>
<path d="M0 0 C7.48291572 6.15034169 7.48291572 6.15034169 10 10 C5.25 8.125 5.25 8.125 3 7 C3.33 8.32 3.66 9.64 4 11 C2.02 9.35 0.04 7.7 -2 6 C0 5 0 5 3 5 C2.2575 4.319375 2.2575 4.319375 1.5 3.625 C0 2 0 2 0 0 Z " fill="#8C1FC4" transform="translate(101,55)"/>
<path d="M0 0 C2.93702257 1.26727085 4.65519099 3.17122883 6.859375 5.47265625 C8.05820313 6.71208984 8.05820313 6.71208984 9.28125 7.9765625 C9.88453125 8.61464844 10.4878125 9.25273437 11.109375 9.91015625 C6.49399038 9.91015625 6.49399038 9.91015625 4.109375 8.91015625 C3.8 8.08515625 3.490625 7.26015625 3.171875 6.41015625 C2.82125 5.58515625 2.470625 4.76015625 2.109375 3.91015625 C-0.35885591 3.0831162 -0.35885591 3.0831162 -2.890625 2.91015625 C-3.550625 2.58015625 -4.210625 2.25015625 -4.890625 1.91015625 C-1.890625 -0.08984375 -1.890625 -0.08984375 0 0 Z " fill="#AC26C6" transform="translate(120.890625,18.08984375)"/>
<path d="M0 0 C0.639375 0.391875 1.27875 0.78375 1.9375 1.1875 C5.91343057 3.54060176 9.95412729 5.76992201 14 8 C9.47907032 9.45606519 6.48351204 8.27032841 2 7 C2.66 6.67 3.32 6.34 4 6 C3.34 5.38125 2.68 4.7625 2 4.125 C0 2 0 2 0 0 Z " fill="#891FCD" transform="translate(57,95)"/>
<path d="M0 0 C0.33 0 0.66 0 1 0 C0.97679687 0.81082031 0.95359375 1.62164062 0.9296875 2.45703125 C0.80845971 9.89522198 1.37081075 16.74138003 3 24 C2.01 24 1.02 24 0 24 C-2.0220662 7.02908726 -2.0220662 7.02908726 0 0 Z " fill="#761FC1" transform="translate(47,60)"/>
<path d="M0 0 C-0.33 1.32 -0.66 2.64 -1 4 C-2.32 4.33 -3.64 4.66 -5 5 C-5.12375 5.61875 -5.2475 6.2375 -5.375 6.875 C-6 9 -6 9 -8 11 C-8.66 10.67 -9.32 10.34 -10 10 C-8.50006099 6.10015857 -4.53875449 0 0 0 Z " fill="#B10DEB" transform="translate(70,55)"/>
<path d="M0 0 C0.66 0.33 1.32 0.66 2 1 C1.26705631 3.98815505 0.86028082 5.62998122 -1 8 C-5.82504079 10.24717632 -10.8273738 11.76089403 -16 10 C-15.08476562 9.85304688 -14.16953125 9.70609375 -13.2265625 9.5546875 C-12.03804687 9.33039062 -10.84953125 9.10609375 -9.625 8.875 C-7.84996094 8.56175781 -7.84996094 8.56175781 -6.0390625 8.2421875 C-2.70606652 7.28975682 -2.70606652 7.28975682 -1.6484375 3.9453125 C-1.32746094 2.48738281 -1.32746094 2.48738281 -1 1 C-0.67 0.67 -0.34 0.34 0 0 Z " fill="#701FC0" transform="translate(40,47)"/>
<path d="M0 0 C0.78632812 0.16371094 1.57265625 0.32742187 2.3828125 0.49609375 C6.90846849 1.12655771 11.31329568 1.10715524 15.875 1.0625 C16.75414063 1.05798828 17.63328125 1.05347656 18.5390625 1.04882812 C20.69273803 1.03712337 22.84637817 1.01919069 25 1 C24.67 1.66 24.34 2.32 24 3 C20.37515001 3.08681476 16.75056557 3.14032721 13.125 3.1875 C11.57619141 3.22520508 11.57619141 3.22520508 9.99609375 3.26367188 C9.00996094 3.27333984 8.02382812 3.28300781 7.0078125 3.29296875 C5.64100342 3.31653442 5.64100342 3.31653442 4.24658203 3.34057617 C3.50520996 3.22818604 2.76383789 3.1157959 2 3 C1.34 2.01 0.68 1.02 0 0 Z " fill="#932AC7" transform="translate(71,104)"/>
<path d="M0 0 C-0.309375 0.721875 -0.61875 1.44375 -0.9375 2.1875 C-3.11082947 7.94043095 -2.97518856 11.07443432 -1 17 C-1.99 17 -2.98 17 -4 17 C-4.24959784 14.9190156 -4.47394907 12.83499188 -4.6875 10.75 C-4.81511719 9.58984375 -4.94273437 8.4296875 -5.07421875 7.234375 C-4.9900216 3.56515203 -4.25663195 0 0 0 Z " fill="#AF25C8" transform="translate(133,37)"/>
<path d="M0 0 C2.125 0.9375 2.125 0.9375 4 2 C3.67 2.99 3.34 3.98 3 5 C3 4.34 3 3.68 3 3 C1.68 3 0.36 3 -1 3 C-1.12117188 3.68707031 -1.24234375 4.37414063 -1.3671875 5.08203125 C-1.53476563 5.98308594 -1.70234375 6.88414063 -1.875 7.8125 C-2.03742188 8.70582031 -2.19984375 9.59914063 -2.3671875 10.51953125 C-3 13 -3 13 -5 16 C-4.45033703 10.77820176 -3.7243411 5.97015965 -2 1 C-1.34 0.67 -0.68 0.34 0 0 Z " fill="#912CBB" transform="translate(86,53)"/>
<path d="M0 0 C0.99 0.99 1.98 1.98 3 3 C1.02 5.31 -0.96 7.62 -3 10 C-4.30048841 7.39902318 -4.56471422 4.86044938 -5 2 C-4.34 2 -3.68 2 -3 2 C-3 2.66 -3 3.32 -3 4 C-2.01 4 -1.02 4 0 4 C0 2.68 0 1.36 0 0 Z " fill="#B118CC" transform="translate(133,101)"/>
<path d="M0 0 C0.99 0.33 1.98 0.66 3 1 C0.69 3.31 -1.62 5.62 -4 8 C-5.98 7.01 -7.96 6.02 -10 5 C-6.98968256 4.06576355 -6.13349732 3.95550089 -3 5 C-3 4.01 -3 3.02 -3 2 C-2.01 2 -1.02 2 0 2 C0 1.34 0 0.68 0 0 Z " fill="#A01CBF" transform="translate(125,112)"/>
<path d="M0 0 C1.3271261 3.9813783 1.06915913 7.85045227 1 12 C-0.32 12 -1.64 12 -3 12 C-2.69106068 10.3743193 -2.3777305 8.74947252 -2.0625 7.125 C-1.88847656 6.22007813 -1.71445313 5.31515625 -1.53515625 4.3828125 C-1 2 -1 2 0 0 Z " fill="#B915DE" transform="translate(120,81)"/>
<path d="M0 0 C1 3 1 3 1.4375 5.9375 C1.8367191 8.94172675 1.8367191 8.94172675 3.125 11.1875 C4 13 4 13 3 16 C1.93900672 14.26164943 0.90173517 12.50880196 -0.125 10.75 C-0.70507812 9.77546875 -1.28515625 8.8009375 -1.8828125 7.796875 C-3 5 -3 5 -2.2421875 2.703125 C-1 1 -1 1 0 0 Z " fill="#6E1EBB" transform="translate(37,29)"/>
<path d="M0 0 C1.32 0.33 2.64 0.66 4 1 C4.33 2.98 4.66 4.96 5 7 C3.68 7 2.36 7 1 7 C0.67 4.69 0.34 2.38 0 0 Z " fill="#AB05F6" transform="translate(74,122)"/>
<path d="M0 0 C2.66666667 1.33333333 5.33333333 2.66666667 8 4 C8.33 3.01 8.66 2.02 9 1 C9.33 2.32 9.66 3.64 10 5 C8.35 5.33 6.7 5.66 5 6 C3.35 4.02 1.7 2.04 0 0 Z " fill="#962EB4" transform="translate(62,79)"/>
<path d="M0 0 C0.66 0.33 1.32 0.66 2 1 C1.67 4.3 1.34 7.6 1 11 C0.67 11 0.34 11 0 11 C-0.144375 10.2575 -0.28875 9.515 -0.4375 8.75 C-0.93631867 6.07188726 -0.93631867 6.07188726 -1.6875 3.8125 C-1.790625 3.214375 -1.89375 2.61625 -2 2 C-1.34 1.34 -0.68 0.68 0 0 Z " fill="#AE0EE6" transform="translate(85,60)"/>
<path d="M0 0 C0 3.59760476 -0.89512296 4.2215623 -3 7 C-3.70514846 9.14733927 -3.70514846 9.14733927 -4 11 C-4.66 10.34 -5.32 9.68 -6 9 C-5.88679697 5.71711224 -4.71715137 4.69645513 -2.4375 2.25 C-1.633125 1.5075 -0.82875 0.765 0 0 Z " fill="#6E22B6" transform="translate(59,62)"/>
<path d="M0 0 C0.33 0.99 0.66 1.98 1 3 C-1.31 5.31 -3.62 7.62 -6 10 C-6 7 -6 7 -5 4 C-3.68352881 3.30062468 -2.34977849 2.63270867 -1 2 C-0.67 1.34 -0.34 0.68 0 0 Z " fill="#A022C6" transform="translate(70,56)"/>
<path d="M0 0 C5.94 1.485 5.94 1.485 12 3 C7.36533108 4.15866723 4.66739961 3.70010994 0 3 C0 2.01 0 1.02 0 0 Z " fill="#B428CB" transform="translate(132,54)"/>
<path d="M0 0 C1.9375 0.9375 1.9375 0.9375 4 3 C4.66174825 5.9858081 4.87205948 8.94861869 5 12 C3.20931427 9.3139714 2.33944209 7.3373411 1.375 4.3125 C1.11460938 3.50425781 0.85421875 2.69601563 0.5859375 1.86328125 C0.39257812 1.24839844 0.19921875 0.63351563 0 0 Z " fill="#A82CC5" transform="translate(117,48)"/>
<path d="M0 0 C0.33 0.99 0.66 1.98 1 3 C-1.97 5.475 -1.97 5.475 -5 8 C-5.66 7.67 -6.32 7.34 -7 7 C-4.69 4.69 -2.38 2.38 0 0 Z " fill="#741EBF" transform="translate(45,21)"/>
</svg>
